<?xml version="1.0" standalone="no"?>
<!DOCTYPE svg PUBLIC "-//W3C//DTD SVG 20010904//EN"
 "http://www.w3.org/TR/2001/REC-SVG-20010904/DTD/svg10.dtd">
<svg version="1.0" xmlns="http://www.w3.org/2000/svg"
 width="70.000000pt" height="70.000000pt" viewBox="0 0 70.000000 70.000000"
 preserveAspectRatio="xMidYMid meet">
<metadata>
Created by potrace 1.11, written by Peter Selinger 2001-2013
</metadata>
<g transform="translate(0.000000,70.000000) scale(0.100000,-0.100000)"
fill="#000000" stroke="none">
<path d="M336 684 c-9 -24 2 -34 39 -34 33 0 46 13 38 38 -7 18 -70 15 -77 -4z"/>
<path d="M274 605 c-31 -22 -6 -34 76 -36 103 -2 102 -2 98 23 -3 21 -9 23
-79 25 -52 2 -82 -2 -95 -12z"/>
<path d="M205 532 c-10 -10 -5 -42 8 -43 15 -1 185 -1 210 0 17 1 25 39 10 43
-20 4 -224 4 -228 0z"/>
<path d="M471 483 c-11 -21 -51 -77 -89 -124 -38 -47 -77 -99 -85 -115 -36
-70 -29 -147 20 -212 l24 -32 56 77 c30 43 69 94 87 113 61 66 71 89 71 165 0
59 -5 78 -28 118 -15 26 -30 47 -32 47 -3 0 -13 -17 -24 -37z"/>
<path d="M140 445 c-8 -9 -7 -17 3 -27 22 -21 236 -18 248 5 15 26 -8 32 -128
33 -80 1 -116 -2 -123 -11z"/>
<path d="M124 355 c-11 -28 7 -35 95 -35 91 0 121 11 100 37 -17 19 -188 18
-195 -2z"/>
<path d="M154 275 c-10 -25 6 -35 56 -35 49 0 70 16 47 39 -17 17 -96 14 -103
-4z"/>
</g>
</svg>
